<svg xmlns="http://www.w3.org/2000/svg" viewBox="0 0 1920 1080"><defs><style>.cls-1,.cls-2{fill:#00adee;}.cls-2{fill-rule:evenodd;}</style></defs><g id="_Camada_2" data-name="&lt;Camada&gt;"><path class="cls-1" d="M227.6,670.53a103,103,0,0,1-103-103l.33-118.19a29.5,29.5,0,0,1,59,0v44.24h73.75a29.5,29.5,0,0,1,0,59H183.89v14.87A44.12,44.12,0,0,0,228,611.54h44.36a29.5,29.5,0,0,1,0,59Z"/><path class="cls-1" d="M810.11,670.53a102.73,102.73,0,0,1-102.68-103V449.32a29.5,29.5,0,0,1,59,0v44.24h44.22a29.5,29.5,0,1,1,0,59H766.42v14.87a44.12,44.12,0,0,0,44.12,44.12H825.4a29.5,29.5,0,0,1,0,59Z"/><path class="cls-1" d="M965,670.53a102.73,102.73,0,0,1-102.68-103V449.32a29.5,29.5,0,0,1,59,0v44.24h44.23a29.5,29.5,0,1,1,0,59H921.26v14.87a44.12,44.12,0,0,0,44.12,44.12h14.88a29.5,29.5,0,0,1,0,59Z"/><path class="cls-1" d="M1216.38,582.05c0-48.87,39.15-88.49,88-88.49h44.24a29.5,29.5,0,0,1,0,59H1304.4a29.51,29.51,0,0,0-29.51,29.5l.48,59a29.5,29.5,0,0,1-59,0Z"/><path class="cls-1" d="M574.7,493.56a29.5,29.5,0,0,0-29.49,29.5v59a29.5,29.5,0,0,1-59,0v-59a29.5,29.5,0,1,0-59,0v59a29.5,29.5,0,0,1-59,0v-59a29.5,29.5,0,1,0-59,0v59a88.39,88.39,0,0,0,147.48,65.82A88.38,88.38,0,0,0,604.2,582.05v-59A29.5,29.5,0,0,0,574.7,493.56Z"/><path class="cls-1" d="M655.81,493.56a29.49,29.49,0,0,0-29.49,29.5V641a29.5,29.5,0,0,0,59,0v-118A29.5,29.5,0,0,0,655.81,493.56Z"/><circle class="cls-1" cx="655.81" cy="449.32" r="29.49"/><path class="cls-2" d="M1561.45,497.28c14.47-45.18,32.16-74.45,52.52-95.67,15.19-15.84,23-20.87,14.1-3.43a95.76,95.76,0,0,1,14-9.6c24.63-11.62,22.87-1.88,5.92,8.56,46.31-16.56,44.71,4.54-4.27,15,40,.76,82.62,26.24,94.86,80.44,1.71,7.5-.33,6.79,7.36,8.15,16.59,2.94,32.18,2.76,47.38-2.08-1.64,11.22-16.45,18.51-39.55,23.31-8.57,1.79-10.33,1.32-.06,3.63,12.64,2.84,26.77,3.57,41.72,2.88-11.64,13.39-30.21,20.25-53.15,20.53-14.36,52.42-47.17,90-88.67,113.53-97.5,55.33-239.4,47.3-310.57-53.26C1389.75,646,1458.92,654,1510.29,603c-33.66,0-42.38-25.2-15.69-38.81-25.26-.27-41.32-8.26-50.74-22.73-3.58-5.5-3.62-5.92,2.22-10.14,6.41-4.64,15.14-6.7,24.2-7.39-26.16-7.49-42.14-21.15-47.68-39.48-1.83-6.06-2.13-5.75,4-7.32a113.53,113.53,0,0,1,20.75-2.69c-20.55-12.46-32.81-27.72-35.94-44.6-3-15.94.1-11.85,12-7.29,53.33,20.41,106.5,42.32,138,74.77Z"/><path class="cls-1" d="M1194.08,567.3c0,10.31-4.32,29.41-19.71,29.41H1077a29.49,29.49,0,0,0,28.58,22.21h62.85a25.81,25.81,0,0,1,0,51.62h-62.85c-48.86,0-88.48-39.91-88.48-95.86,0-49.09,39.63-81.11,88.51-81.11s88.5,33,88.5,73.74Zm-59-7.37c0-13.58-13.19-24.58-29.49-24.58s-29.5,11-29.5,24.58Z"/></g></svg>